<?xml version="1.0" encoding="utf-8"?>
<svg version="1.1" id="Calque_2_00000166652099003412153460000001928785347232363906_"
	 xmlns="http://www.w3.org/2000/svg" xmlns:xlink="http://www.w3.org/1999/xlink" x="0px" y="0px" viewBox="0 0 79.4 68.3"
	 style="enable-background:new 0 0 79.4 68.3;" xml:space="preserve">
<style type="text/css">
	.st0{fill:#FF70A6;}
</style>
<g>
	<g>
		<circle class="st0" cx="22.9" cy="22.9" r="4.7"/>
		<path class="st0" d="M59,30.5c1.6,0,2.9-1.3,2.9-2.9s-1.3-2.9-2.9-2.9s-2.9,1.3-2.9,2.9S57.4,30.5,59,30.5z"/>
		<path class="st0" d="M75.3,7.3H39.7C35.5,2.8,29.5,0,22.9,0C10.3,0,0,10.3,0,22.9c0,4.9,1.5,9.4,4.1,13.1c0.2,1.3,0.4,2.7,0.8,3.9
			c0.6,2.6,1.5,5,2.5,7.2c0.4,0.8,0.8,1.6,1.2,2.4l0,0c0.9,1.6,1.8,3,2.8,4.4l0.1,0.1c1,1.4,2.1,2.6,3.3,3.8c0.1,0,0.1,0.1,0.1,0.1
			c0.6,0.6,1.2,1.1,1.8,1.6l0,0c0.6,0.5,1.3,1.1,2,1.5l0.1,0.1c0.6,0.4,1.2,0.9,1.9,1.3c0.1,0.1,0.2,0.1,0.3,0.2
			c1.4,0.8,2.8,1.6,4.3,2.2c0.1,0.1,0.3,0.1,0.5,0.2c0.7,0.3,1.4,0.6,2.1,0.8c0,0,0.1,0,0.1,0.1c0.8,0.3,1.6,0.5,2.4,0.7
			c0.2,0.1,0.4,0.1,0.5,0.1c0.6,0.2,1.3,0.3,2,0.5c0.2,0,0.3,0.1,0.5,0.1c0.8,0.2,1.6,0.3,2.5,0.4c0.2,0,0.3,0,0.5,0.1
			c0.7,0.1,1.4,0.2,2.1,0.2c0.2,0,0.5,0,0.7,0.1c0.9,0.1,1.7,0.1,2.6,0.1c8.4,0,15.9-2.1,21.8-5.7c0.4-0.2,0.7-0.5,1.1-0.7
			c0.7-0.5,1.4-1,2-1.5c0.2-0.1,0.3-0.3,0.5-0.4c0.8-0.7,1.6-1.4,2.3-2.1l0,0c0.4-0.4,0.8-0.9,1.2-1.3c0.1-0.2,0.3-0.3,0.4-0.5
			c0.2-0.3,0.5-0.6,0.7-0.9c0.2-0.2,0.3-0.4,0.4-0.6c0.2-0.3,0.4-0.5,0.6-0.8c0.2-0.2,0.3-0.4,0.4-0.6c0.2-0.3,0.3-0.5,0.5-0.8
			c0.1-0.2,0.3-0.5,0.4-0.7c0.2-0.3,0.3-0.5,0.4-0.8c0.1-0.2,0.3-0.5,0.4-0.7c0.1-0.3,0.3-0.5,0.4-0.8c0.1-0.2,0.2-0.5,0.4-0.8
			c0.1-0.3,0.2-0.5,0.4-0.8c0.1-0.2,0.2-0.5,0.3-0.8l0,0c1.2-3,2-6.3,2.5-9.8l0,0c0.1-0.6,0.1-1.2,0.2-1.7l0,0
			c0.1-0.6,0.1-1.1,0.1-1.7c0-0.1,0-0.3,0-0.4c0-0.5,0.1-0.9,0.1-1.4c0-0.6,0-1.2,0-1.9c0,0,0,0,0-0.1C79.4,20.1,76.9,11.6,75.3,7.3
			L75.3,7.3z M47.3,16.7h22.2c0.4,0.8,0.8,2,1.1,3.4c0.5,2.4,0.9,5.5,0.9,9.4c0,0.6,0,1.3-0.1,1.9c0,0.2,0,0.3,0,0.5
			c0,0.5-0.1,1-0.1,1.4c0,0.1,0,0.3-0.1,0.4c-0.1,0.6-0.2,1.2-0.2,1.8l0,0c-0.2,1-0.4,2-0.7,3H46.4V16.7H47.3L47.3,16.7z M22.9,8
			c8.2,0,14.9,6.7,14.9,14.9s-6.7,14.9-14.9,14.9S8,31.2,8,22.9S14.7,8,22.9,8z M66.3,47.2c-0.6,0.8-1.3,1.6-2,2.4
			c-0.1,0.1-0.1,0.1-0.2,0.2c-0.3,0.3-0.6,0.6-0.9,0.9c-0.1,0.1-0.2,0.2-0.3,0.3c-0.3,0.3-0.6,0.5-0.9,0.8c-0.1,0.1-0.2,0.2-0.3,0.2
			c-0.3,0.3-0.7,0.6-1.1,0.8l-0.1,0.1c-0.8,0.6-1.8,1.2-2.7,1.7c-0.1,0.1-0.2,0.1-0.3,0.2c-0.3,0.2-0.7,0.4-1.1,0.5
			c-0.2,0.1-0.3,0.1-0.5,0.2c-0.3,0.2-0.7,0.3-1.1,0.4c-0.2,0.1-0.3,0.1-0.5,0.2c-0.4,0.2-0.8,0.3-1.2,0.4c-0.1,0-0.2,0.1-0.4,0.1
			c-0.5,0.2-1.1,0.3-1.7,0.5c0,0,0,0-0.1,0c-0.5,0.1-1.1,0.2-1.6,0.4c-0.2,0-0.4,0.1-0.5,0.1c-0.4,0.1-0.8,0.1-1.2,0.2
			c-0.2,0-0.4,0.1-0.7,0.1c-0.4,0-0.8,0.1-1.2,0.1c-0.2,0-0.4,0-0.7,0.1c-0.4,0-0.8,0.1-1.3,0.1c-0.2,0-0.4,0-0.6,0
			c-0.6,0-1.3,0-1.9,0s-1.3,0-1.9,0c-0.2,0-0.4,0-0.6,0c-0.4,0-0.8,0-1.3-0.1c-0.2,0-0.4,0-0.7-0.1c-0.4,0-0.8-0.1-1.2-0.1
			c-0.2,0-0.4-0.1-0.6-0.1c-0.4-0.1-0.8-0.1-1.2-0.2c-0.2,0-0.4-0.1-0.6-0.1c-0.4-0.1-0.9-0.2-1.3-0.3c-0.1,0-0.2-0.1-0.4-0.1
			c-1.1-0.3-2.2-0.6-3.2-1c-0.1,0-0.1-0.1-0.2-0.1c-0.4-0.2-0.9-0.3-1.3-0.5c-0.1,0-0.2-0.1-0.3-0.2c-0.4-0.2-0.8-0.4-1.2-0.6
			c-0.1,0-0.2-0.1-0.3-0.2c-0.4-0.2-0.8-0.4-1.2-0.7c-0.1,0-0.1-0.1-0.2-0.1c-1.8-1.1-3.5-2.5-4.9-4c0,0,0,0,0-0.1
			c-0.3-0.4-0.7-0.7-1-1.1c0,0,0,0-0.1-0.1c-0.6-0.7-1.1-1.4-1.6-2.1h50.4C66.7,46.6,66.5,46.9,66.3,47.2L66.3,47.2z"/>
	</g>
</g>
</svg>
